<?xml version="1.0" standalone="no"?>
<!DOCTYPE svg PUBLIC "-//W3C//DTD SVG 20010904//EN"
 "http://www.w3.org/TR/2001/REC-SVG-20010904/DTD/svg10.dtd">
<svg version="1.0" xmlns="http://www.w3.org/2000/svg"
 width="1726.000000pt" height="1726.000000pt" viewBox="0 0 1726.000000 1726.000000"
 preserveAspectRatio="xMidYMid meet">
<metadata>
Created by potrace 1.11, written by Peter Selinger 2001-2013
</metadata>
<g transform="translate(0.000000,1726.000000) scale(0.100000,-0.100000)"
fill="#000000" stroke="none">
<path d="M17225 16806 c-19 -13 -71 -42 -185 -103 -30 -17 -73 -41 -95 -53
-59 -34 -112 -63 -185 -103 -91 -49 -232 -126 -250 -137 -8 -5 -58 -33 -110
-61 -101 -56 -784 -434 -860 -477 -43 -24 -189 -104 -295 -162 -27 -15 -219
-121 -425 -235 -206 -114 -481 -266 -610 -338 -129 -71 -253 -140 -275 -152
-97 -54 -147 -82 -435 -240 -168 -92 -316 -175 -330 -183 -14 -9 -26 -15 -27
-14 -2 1 -40 -20 -85 -47 -46 -26 -119 -68 -163 -92 -44 -23 -98 -53 -120 -65
-22 -13 -71 -39 -110 -60 -38 -20 -77 -43 -86 -50 -8 -8 -19 -14 -23 -14 -5 0
-63 -31 -130 -69 -66 -37 -148 -83 -181 -101 -33 -18 -139 -76 -235 -130 -96
-53 -215 -119 -265 -145 -49 -27 -92 -51 -95 -54 -3 -3 -27 -18 -55 -32 -67
-35 -136 -73 -345 -189 -96 -53 -206 -114 -245 -136 -38 -21 -202 -111 -363
-201 -162 -89 -302 -165 -313 -168 -10 -4 -19 -11 -19 -16 0 -5 -4 -9 -9 -9
-7 0 -469 -253 -671 -367 -19 -11 -80 -44 -135 -73 -55 -30 -102 -56 -105 -59
-3 -3 -21 -14 -40 -23 -36 -18 -133 -71 -205 -113 -22 -12 -71 -40 -110 -60
-60 -33 -212 -117 -375 -207 -105 -59 -332 -185 -420 -233 -52 -29 -243 -134
-425 -235 -181 -100 -352 -195 -380 -210 -27 -15 -113 -62 -190 -105 -77 -43
-169 -94 -205 -113 -36 -19 -76 -42 -90 -51 -14 -8 -41 -24 -60 -33 -19 -10
-62 -33 -95 -53 -33 -19 -71 -40 -85 -47 -14 -7 -92 -50 -173 -95 -82 -46
-151 -83 -153 -83 -2 0 -21 -10 -42 -23 -20 -13 -71 -42 -112 -64 -42 -23
-152 -83 -245 -135 -94 -52 -177 -98 -185 -101 -8 -4 -28 -15 -45 -25 -28 -18
-285 -160 -405 -225 -30 -17 -89 -49 -130 -72 -41 -23 -100 -56 -130 -72 -128
-71 -358 -198 -400 -221 -25 -14 -65 -35 -89 -48 -24 -13 -49 -28 -55 -33 -6
-4 -51 -30 -101 -56 -49 -26 -191 -104 -315 -173 -124 -68 -250 -138 -280
-155 -30 -16 -89 -49 -130 -72 -41 -23 -102 -57 -135 -75 -129 -70 -162 -88
-210 -116 -136 -76 -300 -164 -308 -164 -4 0 -7 -112 -6 -248 l3 -249 140 3
c78 1 308 5 511 9 204 3 483 8 620 10 138 2 401 7 585 9 184 3 486 8 670 11
414 7 712 12 1215 20 215 3 442 7 506 9 79 1 115 -1 113 -9 -3 -5 -50 -56
-107 -112 -97 -96 -927 -935 -1552 -1568 -159 -161 -583 -590 -941 -952 -358
-362 -745 -753 -860 -870 -115 -116 -519 -525 -899 -908 -379 -383 -777 -785
-884 -894 -107 -108 -523 -529 -926 -936 -403 -407 -795 -804 -871 -882 -77
-77 -187 -190 -246 -250 l-108 -109 -5 -104 c-3 -58 -7 -139 -10 -180 -11
-192 -15 -351 -8 -347 4 2 60 35 123 73 63 38 127 76 141 84 31 17 346 207
387 232 15 9 38 23 52 31 14 7 444 265 955 572 512 307 941 565 955 572 14 8
37 22 52 31 91 57 345 208 356 210 6 2 12 8 12 13 0 5 4 9 10 9 5 0 56 28 112
63 57 35 110 66 118 70 8 4 106 62 218 130 379 229 733 442 777 467 24 14 219
131 434 260 215 129 416 250 448 269 32 18 70 41 85 50 15 9 98 59 185 111 86
52 165 100 175 105 9 6 155 93 324 195 346 209 413 248 434 257 8 4 17 9 20
13 9 11 431 260 440 260 6 0 10 3 10 8 0 4 17 16 38 27 20 11 83 48 138 82 56
35 106 63 112 63 6 0 12 3 14 8 4 11 694 422 707 422 6 0 11 4 11 9 0 5 15 16
33 25 17 9 66 37 107 63 41 25 89 53 105 63 17 9 105 63 198 118 92 56 167 99
167 96 0 -3 12 7 27 21 15 14 31 25 35 25 4 0 71 38 147 85 77 47 144 85 150
85 5 0 11 3 13 8 2 6 200 127 272 166 12 7 44 26 71 43 28 17 54 32 59 31 5 0
12 4 15 9 6 9 53 39 112 73 32 18 405 242 567 340 61 37 112 65 112 61 0 -3 4
-1 8 5 4 6 44 33 90 60 161 95 268 160 309 187 24 15 44 27 47 27 3 0 111 64
236 140 119 72 277 166 285 169 5 2 24 15 41 28 17 12 33 23 37 23 3 0 53 29
112 65 58 36 108 65 110 65 2 0 23 13 47 28 24 16 59 38 78 48 19 10 37 21 40
24 3 3 19 13 35 22 17 9 58 34 93 55 35 21 71 43 80 48 50 29 101 60 132 80
19 12 72 44 118 71 113 66 103 61 225 134 60 36 125 75 145 88 20 12 44 25 52
29 8 4 44 25 80 47 86 54 91 57 190 116 47 28 92 55 100 60 45 29 393 237 440
263 30 17 57 34 58 39 2 4 7 8 12 8 7 0 75 40 385 227 44 26 88 53 97 58 20
12 186 111 234 140 129 77 421 253 442 265 15 9 46 28 69 43 24 15 44 27 46
27 4 0 1072 643 1096 660 15 11 22 30 26 70 3 30 7 71 10 90 2 19 7 58 10 85
3 28 10 84 15 125 12 97 22 190 24 215 1 15 -5 20 -24 19 -59 -2 -300 -15
-360 -19 -36 -2 -119 -6 -185 -10 -193 -9 -304 -15 -395 -21 -47 -3 -102 -7
-122 -8 -22 -1 -38 2 -38 8 0 8 -2 8 -8 0 -4 -6 -34 -12 -67 -13 -96 -3 -222
-11 -244 -16 -12 -2 -21 1 -21 7 0 7 -4 7 -12 0 -7 -5 -59 -9 -115 -8 -55 0
-99 -2 -97 -5 2 -4 -6 -7 -19 -7 -12 0 -47 -1 -77 -3 -31 -1 -61 1 -68 5 -7 4
-12 2 -12 -3 0 -6 -5 -11 -11 -11 -5 0 -7 6 -3 13 6 9 4 9 -7 1 -8 -6 -42 -11
-77 -10 -34 0 -62 -2 -62 -5 0 -3 -15 -6 -32 -5 -18 1 -57 -1 -86 -4 -47 -6
-52 -4 -46 12 3 10 0 18 -6 18 -6 0 -9 -4 -5 -9 3 -6 -4 -15 -17 -22 -16 -9
-23 -9 -26 0 -2 6 -8 11 -13 11 -6 0 -8 -4 -5 -8 2 -4 -6 -8 -20 -8 -13 0 -24
4 -24 8 0 4 -5 8 -11 8 -5 0 -7 -4 -4 -10 4 -6 -8 -10 -27 -11 -18 0 -60 -2
-93 -3 -45 -2 -63 1 -73 13 -12 15 -13 14 -9 -1 4 -10 -1 -18 -14 -21 -12 -3
-17 -1 -12 6 4 7 0 8 -11 4 -45 -18 -63 -18 -69 -3 -5 11 0 16 14 16 13 0 18
-4 13 -12 -5 -7 -3 -8 5 -3 18 10 -2 28 -25 23 -11 -2 -18 -10 -17 -18 2 -12
-11 -16 -55 -18 -31 -2 -74 -4 -94 -6 -23 -2 -35 1 -31 7 4 6 1 7 -8 1 -8 -5
-32 -10 -54 -11 -22 -2 -53 -4 -69 -5 -18 -2 -31 2 -34 11 -3 10 0 12 14 7 15
-5 16 -4 7 5 -14 14 -36 2 -29 -17 4 -11 -9 -14 -67 -14 -45 0 -78 5 -86 13
-10 10 -11 9 -6 -4 5 -13 -1 -16 -30 -14 -20 1 -38 -3 -41 -7 -4 -5 -15 -1
-27 9 -11 10 -17 12 -13 6 4 -7 4 -13 -1 -14 -4 0 -23 -2 -40 -3 -22 -3 -31 0
-26 8 4 6 -1 5 -10 -3 -14 -11 -17 -11 -17 0 0 10 -3 11 -8 3 -4 -7 -40 -14
-79 -16 -59 -4 -71 -2 -62 9 6 7 15 10 20 7 5 -3 6 1 4 9 -7 16 30 51 44 42 7
-4 8 0 5 10 -6 16 30 60 50 60 5 0 10 8 12 18 3 25 57 86 71 82 7 -2 10 1 8 8
-3 7 11 30 31 52 20 22 43 50 51 62 8 13 20 20 26 16 5 -3 7 -2 4 4 -3 5 19
38 50 74 65 75 82 95 148 174 27 33 52 62 55 65 3 3 41 48 85 100 44 52 82 97
85 100 3 3 39 46 80 95 41 50 104 124 140 166 36 41 84 98 106 125 23 27 50
59 60 70 11 12 37 43 59 70 56 68 113 135 139 164 12 14 44 52 71 85 28 33 52
62 55 65 3 3 30 34 60 70 30 36 57 67 60 70 3 3 89 104 190 224 161 191 336
397 404 476 11 14 57 68 101 120 44 52 82 97 85 100 3 3 41 48 85 100 44 52
120 142 170 200 49 58 108 128 130 154 22 27 45 54 50 60 6 6 35 40 65 76 30
36 67 78 81 95 15 16 95 111 179 210 184 218 232 275 245 289 6 6 32 38 60 71
27 33 54 65 60 71 5 6 25 29 43 52 19 23 44 52 55 65 12 13 31 35 42 48 77 92
190 225 195 229 3 3 23 27 44 54 22 26 49 58 60 70 12 11 41 46 66 76 24 30
60 73 80 96 19 22 44 51 55 65 11 13 72 85 135 159 63 74 122 144 132 155 15
18 162 192 263 310 23 28 71 84 106 126 35 42 96 114 135 160 l72 84 22 160
c12 88 24 180 26 204 2 24 6 51 8 60 3 9 7 39 11 66 3 28 7 64 9 80 14 106 18
132 21 153 4 25 -3 27 -30 8z"/>
<path d="M13680 10700 c-9 -6 -10 -10 -3 -10 6 0 15 5 18 10 8 12 4 12 -15 0z"/>
<path d="M13253 10525 c0 -8 4 -12 9 -9 5 3 6 10 3 15 -9 13 -12 11 -12 -6z"/>
<path d="M12894 10516 c1 -8 5 -18 8 -22 4 -3 5 1 4 10 -1 8 -5 18 -8 22 -4 3
-5 -1 -4 -10z"/>
<path d="M12979 10528 c-5 -18 -6 -38 -1 -34 7 8 12 36 6 36 -2 0 -4 -1 -5 -2z"/>
<path d="M13053 10509 c-2 -23 3 -25 10 -4 4 8 3 16 -1 19 -4 3 -9 -4 -9 -15z"/>
<path d="M13154 10522 c4 -3 14 -7 22 -8 9 -1 13 0 10 4 -4 3 -14 7 -22 8 -9
1 -13 0 -10 -4z"/>
<path d="M13395 10519 c-3 -4 2 -6 10 -5 21 3 28 13 10 13 -9 0 -18 -4 -20 -8z"/>
<path d="M13590 10520 c0 -5 5 -10 11 -10 5 0 7 5 4 10 -3 6 -8 10 -11 10 -2
0 -4 -4 -4 -10z"/>
<path d="M13710 10525 c0 -5 5 -17 10 -25 5 -8 10 -10 10 -5 0 6 -5 17 -10 25
-5 8 -10 11 -10 5z"/>
<path d="M12607 10499 c7 -7 15 -10 18 -7 3 3 -2 9 -12 12 -14 6 -15 5 -6 -5z"/>
<path d="M12675 10479 c-3 -4 2 -6 10 -5 21 3 28 13 10 13 -9 0 -18 -4 -20 -8z"/>
<path d="M12770 10480 c0 -5 5 -10 11 -10 5 0 7 5 4 10 -3 6 -8 10 -11 10 -2
0 -4 -4 -4 -10z"/>
<path d="M12806 10478 c3 -5 10 -6 15 -3 13 9 11 12 -6 12 -8 0 -12 -4 -9 -9z"/>
<path d="M13410 10480 c0 -5 5 -10 11 -10 5 0 7 5 4 10 -3 6 -8 10 -11 10 -2
0 -4 -4 -4 -10z"/>
<path d="M13816 10478 c3 -5 10 -6 15 -3 13 9 11 12 -6 12 -8 0 -12 -4 -9 -9z"/>
<path d="M13593 10467 c0 -8 6 -14 14 -14 9 0 10 4 2 14 -6 7 -12 13 -14 13
-1 0 -2 -6 -2 -13z"/>
<path d="M13020 10466 c0 -2 8 -10 18 -17 15 -13 16 -12 3 4 -13 16 -21 21
-21 13z"/>
<path d="M13236 10462 c-3 -5 1 -9 9 -9 8 0 12 4 9 9 -3 4 -7 8 -9 8 -2 0 -6
-4 -9 -8z"/>
<path d="M12496 10438 c3 -5 10 -6 15 -3 13 9 11 12 -6 12 -8 0 -12 -4 -9 -9z"/>
<path d="M12695 10440 c-3 -5 -1 -10 4 -10 6 0 11 5 11 10 0 6 -2 10 -4 10 -3
0 -8 -4 -11 -10z"/>
<path d="M12730 10439 c0 -5 5 -7 10 -4 6 3 10 8 10 11 0 2 -4 4 -10 4 -5 0
-10 -5 -10 -11z"/>
<path d="M13470 10446 c0 -2 7 -7 16 -10 8 -3 12 -2 9 4 -6 10 -25 14 -25 6z"/>
<path d="M14016 10438 c3 -5 10 -6 15 -3 13 9 11 12 -6 12 -8 0 -12 -4 -9 -9z"/>
<path d="M13415 10430 c-4 -6 -10 -8 -14 -6 -4 3 -8 -1 -8 -9 0 -10 4 -12 12
-5 7 5 14 8 17 5 2 -3 5 2 5 10 0 18 -3 19 -12 5z"/>
<path d="M12670 10421 c0 -6 4 -13 10 -16 6 -3 7 1 4 9 -7 18 -14 21 -14 7z"/>
<path d="M13000 10426 c0 -2 8 -10 18 -17 15 -13 16 -12 3 4 -13 16 -21 21
-21 13z"/>
<path d="M13149 10417 c6 -8 9 -16 6 -19 -3 -2 2 -5 10 -5 13 0 13 3 -2 19
-19 21 -31 25 -14 5z"/>
<path d="M13219 10413 c-13 -16 -12 -17 4 -4 9 7 17 15 17 17 0 8 -8 3 -21
-13z"/>
<path d="M13280 10426 c0 -2 8 -10 18 -17 15 -13 16 -12 3 4 -13 16 -21 21
-21 13z"/>
<path d="M13339 10413 c-13 -16 -12 -17 4 -4 9 7 17 15 17 17 0 8 -8 3 -21
-13z"/>
<path d="M13459 10413 c-13 -16 -12 -17 4 -4 9 7 17 15 17 17 0 8 -8 3 -21
-13z"/>
<path d="M13576 10418 c3 -5 10 -6 15 -3 13 9 11 12 -6 12 -8 0 -12 -4 -9 -9z"/>
<path d="M13690 10420 c0 -5 5 -10 11 -10 5 0 7 5 4 10 -3 6 -8 10 -11 10 -2
0 -4 -4 -4 -10z"/>
<path d="M13900 10426 c0 -2 8 -10 18 -17 15 -13 16 -12 3 4 -13 16 -21 21
-21 13z"/>
<path d="M14114 10416 c1 -8 5 -18 8 -22 4 -3 5 1 4 10 -1 8 -5 18 -8 22 -4 3
-5 -1 -4 -10z"/>
<path d="M13120 10409 c0 -5 -6 -7 -12 -3 -7 4 -9 3 -5 -1 13 -15 36 -14 30 1
-6 17 -13 18 -13 3z"/>
<path d="M12390 10399 c0 -5 5 -7 10 -4 6 3 10 8 10 11 0 2 -4 4 -10 4 -5 0
-10 -5 -10 -11z"/>
<path d="M12920 10395 c-7 -8 -9 -15 -5 -15 4 0 1 -8 -6 -17 -13 -16 -12 -17
4 -4 9 8 15 16 12 19 -3 3 0 11 6 19 6 7 9 13 6 13 -2 0 -10 -7 -17 -15z"/>
<path d="M12956 10402 c-2 -4 -1 -14 4 -22 7 -11 9 -9 7 8 -1 24 -3 26 -11 14z"/>
<path d="M12994 10393 c16 -20 36 -23 36 -6 0 4 -3 3 -7 0 -3 -4 -16 1 -27 10
-21 18 -21 18 -2 -4z"/>
<path d="M13359 10393 c-13 -16 -12 -17 4 -4 9 7 17 15 17 17 0 8 -8 3 -21
-13z"/>
<path d="M13480 10395 c-7 -8 -16 -13 -19 -10 -4 2 -8 -2 -8 -9 0 -8 7 -12 15
-8 9 3 13 1 9 -5 -3 -5 0 -10 8 -10 11 0 12 4 4 14 -9 9 -8 17 1 28 7 8 10 15
7 15 -2 0 -10 -7 -17 -15z"/>
<path d="M13055 10394 c2 -4 -5 -14 -17 -24 -17 -13 -18 -17 -5 -17 9 0 13 5
10 10 -4 6 0 8 9 4 16 -6 20 17 5 28 -4 3 -5 2 -2 -1z"/>
<path d="M13573 10377 c-1 -12 1 -17 5 -11 4 6 15 10 25 8 11 -1 16 1 12 4 -4
4 -10 7 -13 7 -4 0 -12 3 -17 7 -6 4 -12 -3 -12 -15z"/>
<path d="M12599 10373 c-13 -16 -12 -17 4 -4 9 7 17 15 17 17 0 8 -8 3 -21
-13z"/>
<path d="M13233 10373 c0 -7 5 -9 11 -5 6 3 17 7 24 8 27 4 22 12 -6 11 -16
-1 -29 -7 -29 -14z"/>
<path d="M13322 10378 c-15 -15 -15 -28 0 -28 6 0 8 3 5 7 -4 3 -2 12 4 20 14
16 7 17 -9 1z"/>
<path d="M13630 10380 c0 -5 9 -8 20 -7 21 1 18 10 -5 13 -8 1 -15 -2 -15 -6z"/>
<path d="M13096 10371 c-4 -5 3 -7 14 -4 23 6 26 13 6 13 -8 0 -17 -4 -20 -9z"/>
<path d="M13197 10369 c7 -7 15 -10 18 -7 3 3 -2 9 -12 12 -14 6 -15 5 -6 -5z"/>
<path d="M12630 10358 c0 -4 4 -8 9 -8 6 0 12 4 15 8 3 5 -1 9 -9 9 -8 0 -15
-4 -15 -9z"/>
<path d="M12710 10356 c7 -7 13 -7 20 0 6 6 3 10 -10 10 -13 0 -16 -4 -10 -10z"/>
<path d="M12790 10356 c7 -7 13 -7 20 0 6 6 3 10 -10 10 -13 0 -16 -4 -10 -10z"/>
<path d="M12877 10349 c12 -12 24 -21 27 -18 2 2 -8 13 -22 23 l-27 19 22 -24z"/>
<path d="M13163 10363 c-21 -8 15 -52 38 -48 16 3 19 0 14 -15 -3 -10 -1 -21
4 -24 6 -4 9 5 8 21 -2 21 -8 28 -22 28 -19 -1 -35 12 -35 28 0 5 5 5 12 1 7
-4 8 -3 4 4 -4 7 -8 12 -9 11 -1 0 -8 -3 -14 -6z"/>
<path d="M13430 10364 c0 -5 7 -18 15 -28 8 -11 15 -16 15 -10 0 5 -7 18 -15
28 -8 11 -15 16 -15 10z"/>
<path d="M13684 10359 c-3 -6 -2 -15 3 -20 5 -5 9 -1 9 11 0 23 -2 24 -12 9z"/>
<path d="M13713 10353 c0 -9 4 -10 14 -2 7 6 13 12 13 14 0 1 -6 2 -13 2 -8 0
-14 -6 -14 -14z"/>
<path d="M13826 10362 c-2 -4 4 -8 14 -8 10 0 16 4 14 8 -3 4 -9 8 -14 8 -5 0
-11 -4 -14 -8z"/>
<path d="M13595 10350 c-3 -6 1 -13 9 -16 9 -3 13 -11 9 -18 -3 -6 -2 -7 2 -3
16 14 14 36 -3 30 -10 -4 -13 -2 -8 5 4 7 5 12 2 12 -3 0 -8 -5 -11 -10z"/>
<path d="M13775 10350 c-4 -6 -10 -8 -15 -5 -5 3 -11 2 -14 -3 -2 -4 6 -8 18
-8 12 0 23 6 23 13 0 16 -4 16 -12 3z"/>
<path d="M12470 10336 c7 -7 13 -7 20 0 6 6 3 10 -10 10 -13 0 -16 -4 -10 -10z"/>
<path d="M12593 10332 c-8 -14 -8 -19 1 -19 7 0 13 9 13 19 1 10 1 18 0 18 -1
0 -7 -8 -14 -18z"/>
<path d="M12676 10342 c-3 -5 1 -9 9 -9 8 0 12 4 9 9 -3 4 -7 8 -9 8 -2 0 -6
-4 -9 -8z"/>
<path d="M12766 10337 c3 -10 9 -15 12 -12 3 3 0 11 -7 18 -10 9 -11 8 -5 -6z"/>
<path d="M12833 10335 c0 -8 6 -16 13 -19 7 -3 10 2 7 15 -6 22 -20 26 -20 4z"/>
<path d="M12976 10334 c-3 -8 0 -16 6 -20 7 -5 8 -2 3 6 -5 9 -1 11 16 6 13
-3 18 -3 11 0 -6 3 -10 9 -8 13 3 4 -1 8 -9 8 -8 0 -16 -6 -19 -13z"/>
<path d="M13062 10342 c-8 -6 -2 -9 18 -9 20 0 26 3 18 9 -7 4 -15 8 -18 8 -3
0 -11 -4 -18 -8z"/>
<path d="M13136 10336 c6 -15 4 -17 -6 -11 -9 6 -11 4 -5 -4 5 -9 10 -10 18
-2 8 8 7 14 -2 24 -10 10 -11 8 -5 -7z"/>
<path d="M13231 10333 c7 -12 15 -20 18 -17 3 2 -3 12 -13 22 -17 16 -18 16
-5 -5z"/>
<path d="M13349 10333 c15 -30 14 -33 -6 -27 -15 5 -15 4 -3 -4 29 -21 39 3
14 34 -15 18 -15 18 -5 -3z"/>
<path d="M13510 10339 c0 -15 18 -19 23 -6 3 8 -1 14 -9 14 -8 0 -14 -4 -14
-8z"/>
<path d="M13565 10339 c-4 -6 -5 -12 -2 -15 2 -3 7 2 10 11 7 17 1 20 -8 4z"/>
<path d="M13947 10339 c7 -7 15 -10 18 -7 3 3 -2 9 -12 12 -14 6 -15 5 -6 -5z"/>
<path d="M14090 10340 c0 -5 5 -10 11 -10 5 0 7 5 4 10 -3 6 -8 10 -11 10 -2
0 -4 -4 -4 -10z"/>
<path d="M13260 10336 c0 -2 7 -6 15 -10 8 -3 15 -1 15 4 0 6 -7 10 -15 10 -8
0 -15 -2 -15 -4z"/>
<path d="M13310 10330 c0 -5 5 -10 11 -10 5 0 7 5 4 10 -3 6 -8 10 -11 10 -2
0 -4 -4 -4 -10z"/>
<path d="M13876 10327 c3 -10 9 -15 12 -12 3 3 0 11 -7 18 -10 9 -11 8 -5 -6z"/>
<path d="M12520 10320 c-9 -6 -10 -10 -3 -10 6 0 15 5 18 10 8 12 4 12 -15 0z"/>
<path d="M13470 10320 c0 -5 7 -7 15 -4 8 4 15 8 15 10 0 2 -7 4 -15 4 -8 0
-15 -4 -15 -10z"/>
<path d="M12693 10305 c0 -8 4 -12 9 -9 5 3 6 10 3 15 -9 13 -12 11 -12 -6z"/>
<path d="M12917 10304 c3 -7 9 -14 14 -14 14 0 10 17 -5 23 -10 4 -13 1 -9 -9z"/>
<path d="M13078 10313 c7 -3 16 -2 19 1 4 3 -2 6 -13 5 -11 0 -14 -3 -6 -6z"/>
<path d="M13390 10311 c0 -10 19 -25 25 -20 1 2 -3 10 -11 17 -8 7 -14 8 -14
3z"/>
<path d="M13650 10311 c0 -7 -5 -9 -12 -5 -7 5 -8 3 -3 -5 5 -9 10 -10 18 -2
6 6 8 14 4 18 -4 3 -7 1 -7 -6z"/>
<path d="M12473 10295 c0 -8 4 -12 9 -9 4 3 8 9 8 15 0 5 -4 9 -8 9 -5 0 -9
-7 -9 -15z"/>
<path d="M12737 10296 c-4 -11 -1 -13 10 -9 12 5 14 3 8 -7 -5 -9 -4 -11 4 -6
9 6 9 11 0 22 -14 17 -16 17 -22 0z"/>
<path d="M12795 10300 c3 -5 8 -10 11 -10 2 0 4 5 4 10 0 6 -5 10 -11 10 -5 0
-7 -4 -4 -10z"/>
<path d="M12860 10299 c-12 -9 -12 -10 4 -5 14 5 17 3 12 -11 -6 -15 -5 -16 5
-5 18 17 -1 35 -21 21z"/>
<path d="M13014 10293 c2 -9 8 -18 15 -19 6 -1 7 0 2 2 -6 3 -7 12 -4 20 3 8
1 14 -5 14 -6 0 -9 -8 -8 -17z"/>
<path d="M13111 10303 c-1 -17 16 -25 25 -12 4 7 3 9 -4 5 -5 -3 -13 0 -15 6
-4 9 -6 10 -6 1z"/>
<path d="M13150 10295 c0 -8 2 -15 4 -15 2 0 6 7 10 15 3 8 1 15 -4 15 -6 0
-10 -7 -10 -15z"/>
<path d="M13249 10293 c-8 -9 -9 -14 -2 -10 6 4 13 4 16 0 2 -5 2 -3 1 4 -2 6
2 14 9 17 8 3 8 5 1 5 -6 1 -18 -7 -25 -16z"/>
<path d="M13306 10295 c10 -8 23 -15 28 -15 6 0 1 7 -10 15 -10 8 -23 15 -28
15 -6 0 -1 -7 10 -15z"/>
<path d="M13457 10299 c7 -7 15 -10 18 -7 3 3 -2 9 -12 12 -14 6 -15 5 -6 -5z"/>
<path d="M13526 10302 c-3 -5 1 -9 9 -9 8 0 15 4 15 9 0 4 -4 8 -9 8 -6 0 -12
-4 -15 -8z"/>
<path d="M13570 10298 c0 -4 4 -8 9 -8 6 0 12 4 15 8 3 5 -1 9 -9 9 -8 0 -15
-4 -15 -9z"/>
<path d="M12554 10286 c1 -8 5 -18 8 -22 4 -3 5 1 4 10 -1 8 -5 18 -8 22 -4 3
-5 -1 -4 -10z"/>
<path d="M12425 10280 c-3 -6 1 -7 9 -4 18 7 21 14 7 14 -6 0 -13 -4 -16 -10z"/>
<path d="M12580 10285 c0 -2 6 -8 13 -14 10 -8 14 -7 14 2 0 8 -6 14 -14 14
-7 0 -13 -1 -13 -2z"/>
<path d="M12627 10279 c7 -7 15 -10 18 -7 3 3 -2 9 -12 12 -14 6 -15 5 -6 -5z"/>
<path d="M12950 10280 c0 -5 5 -10 10 -10 6 0 10 5 10 10 0 6 -4 10 -10 10 -5
0 -10 -4 -10 -10z"/>
<path d="M13280 10286 c0 -2 7 -7 16 -10 8 -3 12 -2 9 4 -6 10 -25 14 -25 6z"/>
<path d="M12835 10270 c3 -5 8 -10 11 -10 2 0 4 5 4 10 0 6 -5 10 -11 10 -5 0
-7 -4 -4 -10z"/>
<path d="M12440 10266 c0 -2 8 -10 18 -17 15 -13 16 -12 3 4 -13 16 -21 21
-21 13z"/>
<path d="M12759 10253 c-13 -17 -13 -17 6 -3 11 8 22 16 24 17 2 2 0 3 -6 3
-6 0 -17 -8 -24 -17z"/>
<path d="M12896 10259 c4 -7 44 0 44 7 0 2 -11 3 -24 2 -14 -1 -23 -5 -20 -9z"/>
<path d="M12988 10263 c7 -3 16 -2 19 1 4 3 -2 6 -13 5 -11 0 -14 -3 -6 -6z"/>
<path d="M12616 10252 c-2 -4 4 -8 14 -8 10 0 16 4 14 8 -3 4 -9 8 -14 8 -5 0
-11 -4 -14 -8z"/>
<path d="M12256 10242 c-3 -4 4 -9 15 -9 23 -2 25 3 4 10 -8 4 -16 3 -19 -1z"/>
<path d="M12400 10240 c-9 -6 -10 -10 -3 -10 6 0 15 5 18 10 8 12 4 12 -15 0z"/>
<path d="M12668 10243 c7 -3 16 -2 19 1 4 3 -2 6 -13 5 -11 0 -14 -3 -6 -6z"/>
</g>
</svg>
